<?xml version="1.0" encoding="UTF-8" standalone="no"?>
<!DOCTYPE svg PUBLIC "-//W3C//DTD SVG 1.1//EN"
 "http://www.w3.org/Graphics/SVG/1.1/DTD/svg11.dtd">
<!-- Generated by graphviz version 2.38.0 (20140413.2041)
 -->
<!-- Title: models_diagram Pages: 1 -->
<svg width="482pt" height="246pt"
 viewBox="0.00 0.00 481.97 246.00" xmlns="http://www.w3.org/2000/svg" xmlns:xlink="http://www.w3.org/1999/xlink">
<g id="graph0" class="graph" transform="scale(1 1) rotate(0) translate(4 242)">
<title>models_diagram</title>
<polygon fill="none" stroke="none" points="-4,4 -4,-242 477.966,-242 477.966,4 -4,4"/>
<!-- _diagram_info -->
<g id="node1" class="node"><title>_diagram_info</title>
<text text-anchor="start" x="8" y="-223.6" font-family="Times,serif" font-size="13.00">Models diagram</text>
<text text-anchor="start" x="8" y="-209.6" font-family="Times,serif" font-size="13.00">Date: Sep 12 2016 &#45; 14:36</text>
<text text-anchor="start" x="8" y="-195.6" font-family="Times,serif" font-size="13.00">Migration version: 20160909203223</text>
<text text-anchor="start" x="8" y="-181.6" font-family="Times,serif" font-size="13.00">Generated by RailRoady 1.5.1</text>
<text text-anchor="start" x="8" y="-167.6" font-family="Times,serif" font-size="13.00">http://railroady.prestonlee.com</text>
</g>
<!-- Amount -->
<g id="node2" class="node"><title>Amount</title>
<ellipse fill="none" stroke="black" cx="266" cy="-199" rx="40.0939" ry="18"/>
<text text-anchor="middle" x="266" y="-195.3" font-family="Times,serif" font-size="14.00">Amount</text>
</g>
<!-- Collaborator -->
<g id="node3" class="node"><title>Collaborator</title>
<ellipse fill="none" stroke="black" cx="330" cy="-18" rx="56.59" ry="18"/>
<text text-anchor="middle" x="330" y="-14.3" font-family="Times,serif" font-size="14.00">Collaborator</text>
</g>
<!-- User -->
<g id="node4" class="node"><title>User</title>
<ellipse fill="none" stroke="black" cx="352" cy="-199" rx="27.8951" ry="18"/>
<text text-anchor="middle" x="352" y="-195.3" font-family="Times,serif" font-size="14.00">User</text>
</g>
<!-- User&#45;&gt;Collaborator -->
<g id="edge2" class="edge"><title>User&#45;&gt;Collaborator</title>
<path fill="none" stroke="#8c6e2e" d="M343.757,-173.095C338.358,-155.43 331.802,-131.041 329,-109 326.982,-93.1277 328.852,-88.9993 329,-73 329.081,-64.2977 329.234,-54.8076 329.397,-46.2447"/>
<ellipse fill="none" stroke="#8c6e2e" cx="345.097" cy="-177.37" rx="4.00001" ry="4.00001"/>
<polygon fill="#8c6e2e" stroke="#8c6e2e" points="329.402,-46.0214 334.103,-36.1145 329.503,-41.0224 329.604,-36.0234 329.604,-36.0234 329.604,-36.0234 329.503,-41.0224 325.105,-35.9323 329.402,-46.0214 329.402,-46.0214"/>
</g>
<!-- Wiki -->
<g id="node5" class="node"><title>Wiki</title>
<ellipse fill="none" stroke="black" cx="367" cy="-91" rx="28.6953" ry="18"/>
<text text-anchor="middle" x="367" y="-87.3" font-family="Times,serif" font-size="14.00">Wiki</text>
</g>
<!-- User&#45;&gt;Wiki -->
<g id="edge1" class="edge"><title>User&#45;&gt;Wiki</title>
<path fill="none" stroke="#158fc9" d="M347.599,-173.042C346.002,-159.281 345.37,-141.994 349,-127 349.788,-123.746 350.933,-120.455 352.271,-117.261"/>
<ellipse fill="none" stroke="#158fc9" cx="348.152" cy="-177.139" rx="4.00001" ry="4.00001"/>
<polygon fill="#158fc9" stroke="#158fc9" points="352.345,-117.107 360.746,-110.059 354.52,-112.605 356.694,-108.102 356.694,-108.102 356.694,-108.102 354.52,-112.605 352.642,-106.145 352.345,-117.107 352.345,-117.107"/>
</g>
<!-- User&#45;&gt;Wiki -->
<g id="edge3" class="edge"><title>User&#45;&gt;Wiki</title>
<path fill="none" stroke="#7ca646" d="M355.84,-170.867C358.082,-155.019 360.903,-135.082 363.148,-119.219"/>
<polygon fill="#7ca646" stroke="#7ca646" points="355.811,-171.068 349.954,-180.339 355.111,-176.019 354.41,-180.969 354.41,-180.969 354.41,-180.969 355.111,-176.019 358.866,-181.6 355.811,-171.068 355.811,-171.068"/>
<polygon fill="#7ca646" stroke="#7ca646" points="363.195,-118.89 369.052,-109.619 363.895,-113.939 364.596,-108.988 364.596,-108.988 364.596,-108.988 363.895,-113.939 360.14,-108.358 363.195,-118.89 363.195,-118.89"/>
<text text-anchor="middle" x="413.5" y="-130.8" font-family="Times,serif" font-size="14.00">collaborator_wikis</text>
</g>
<!-- Wiki&#45;&gt;Collaborator -->
<g id="edge4" class="edge"><title>Wiki&#45;&gt;Collaborator</title>
<path fill="none" stroke="#954520" d="M354.624,-66.2508C351.057,-59.4061 347.147,-51.9045 343.515,-44.9345"/>
<ellipse fill="none" stroke="#954520" cx="356.57" cy="-69.9855" rx="4.00002" ry="4.00002"/>
<polygon fill="#954520" stroke="#954520" points="343.413,-44.7391 342.783,-33.7914 341.103,-40.3051 338.792,-35.871 338.792,-35.871 338.792,-35.871 341.103,-40.3051 334.801,-37.9507 343.413,-44.7391 343.413,-44.7391"/>
</g>
<!-- Wiki&#45;&gt;User -->
<g id="edge5" class="edge"><title>Wiki&#45;&gt;User</title>
<path fill="none" stroke="#ed3667" d="M405.419,-96.2638C441.388,-101.989 487.211,-114.782 470,-142 452.245,-170.08 416.164,-184.361 388.549,-191.44"/>
<polygon fill="#ed3667" stroke="#ed3667" points="405.021,-96.2061 395.773,-90.3147 400.073,-95.487 395.125,-94.768 395.125,-94.768 395.125,-94.768 400.073,-95.487 394.478,-99.2212 405.021,-96.2061 405.021,-96.2061"/>
<polygon fill="#ed3667" stroke="#ed3667" points="388.541,-191.442 377.775,-189.355 383.674,-192.589 378.807,-193.735 378.807,-193.735 378.807,-193.735 383.674,-192.589 379.839,-198.115 388.541,-191.442 388.541,-191.442"/>
</g>
</g>
</svg>
