<?xml version="1.0" encoding="UTF-8" standalone="no"?>
<!DOCTYPE svg PUBLIC "-//W3C//DTD SVG 1.1//EN"
 "http://www.w3.org/Graphics/SVG/1.1/DTD/svg11.dtd">
<!-- Generated by graphviz version 2.38.0 (20140413.2041)
 -->
<!-- Title: models_diagram Pages: 1 -->
<svg width="847pt" height="642pt"
 viewBox="0.00 0.00 847.00 642.00" xmlns="http://www.w3.org/2000/svg" xmlns:xlink="http://www.w3.org/1999/xlink">
<g id="graph0" class="graph" transform="scale(1 1) rotate(0) translate(4 638)">
<title>models_diagram</title>
<polygon fill="none" stroke="none" points="-4,4 -4,-638 843,-638 843,4 -4,4"/>
<!-- _diagram_info -->
<g id="node1" class="node"><title>_diagram_info</title>
<text text-anchor="start" x="8" y="-507.6" font-family="Times,serif" font-size="13.00">Models diagram</text>
<text text-anchor="start" x="8" y="-493.6" font-family="Times,serif" font-size="13.00">Date: Sep 12 2016 &#45; 14:36</text>
<text text-anchor="start" x="8" y="-479.6" font-family="Times,serif" font-size="13.00">Migration version: 20160909203223</text>
<text text-anchor="start" x="8" y="-465.6" font-family="Times,serif" font-size="13.00">Generated by RailRoady 1.5.1</text>
<text text-anchor="start" x="8" y="-451.6" font-family="Times,serif" font-size="13.00">http://railroady.prestonlee.com</text>
</g>
<!-- Amount -->
<g id="node2" class="node"><title>Amount</title>
<path fill="none" stroke="black" d="M238,-437.5C238,-437.5 462,-437.5 462,-437.5 468,-437.5 474,-443.5 474,-449.5 474,-449.5 474,-516.5 474,-516.5 474,-522.5 468,-528.5 462,-528.5 462,-528.5 238,-528.5 238,-528.5 232,-528.5 226,-522.5 226,-516.5 226,-516.5 226,-449.5 226,-449.5 226,-443.5 232,-437.5 238,-437.5"/>
<text text-anchor="middle" x="350" y="-513.3" font-family="Times,serif" font-size="14.00">Amount</text>
<polyline fill="none" stroke="black" points="226,-505.5 474,-505.5 "/>
<text text-anchor="start" x="234" y="-490.3" font-family="Times,serif" font-size="14.00">id :integer</text>
<text text-anchor="start" x="234" y="-475.3" font-family="Times,serif" font-size="14.00">price :integer</text>
<text text-anchor="start" x="234" y="-460.3" font-family="Times,serif" font-size="14.00">created_at :timestamp without time zone</text>
<text text-anchor="start" x="234" y="-445.3" font-family="Times,serif" font-size="14.00">updated_at :timestamp without time zone</text>
</g>
<!-- Collaborator -->
<g id="node3" class="node"><title>Collaborator</title>
<path fill="none" stroke="black" d="M495,-0.5C495,-0.5 719,-0.5 719,-0.5 725,-0.5 731,-6.5 731,-12.5 731,-12.5 731,-94.5 731,-94.5 731,-100.5 725,-106.5 719,-106.5 719,-106.5 495,-106.5 495,-106.5 489,-106.5 483,-100.5 483,-94.5 483,-94.5 483,-12.5 483,-12.5 483,-6.5 489,-0.5 495,-0.5"/>
<text text-anchor="middle" x="607" y="-91.3" font-family="Times,serif" font-size="14.00">Collaborator</text>
<polyline fill="none" stroke="black" points="483,-83.5 731,-83.5 "/>
<text text-anchor="start" x="491" y="-68.3" font-family="Times,serif" font-size="14.00">id :integer</text>
<text text-anchor="start" x="491" y="-53.3" font-family="Times,serif" font-size="14.00">user_id :integer</text>
<text text-anchor="start" x="491" y="-38.3" font-family="Times,serif" font-size="14.00">wiki_id :integer</text>
<text text-anchor="start" x="491" y="-23.3" font-family="Times,serif" font-size="14.00">created_at :timestamp without time zone</text>
<text text-anchor="start" x="491" y="-8.3" font-family="Times,serif" font-size="14.00">updated_at :timestamp without time zone</text>
</g>
<!-- User -->
<g id="node4" class="node"><title>User</title>
<path fill="none" stroke="black" d="M504,-332.5C504,-332.5 800,-332.5 800,-332.5 806,-332.5 812,-338.5 812,-344.5 812,-344.5 812,-621.5 812,-621.5 812,-627.5 806,-633.5 800,-633.5 800,-633.5 504,-633.5 504,-633.5 498,-633.5 492,-627.5 492,-621.5 492,-621.5 492,-344.5 492,-344.5 492,-338.5 498,-332.5 504,-332.5"/>
<text text-anchor="middle" x="652" y="-618.3" font-family="Times,serif" font-size="14.00">User</text>
<polyline fill="none" stroke="black" points="492,-610.5 812,-610.5 "/>
<text text-anchor="start" x="500" y="-595.3" font-family="Times,serif" font-size="14.00">role :integer</text>
<text text-anchor="start" x="500" y="-580.3" font-family="Times,serif" font-size="14.00">email :character varying</text>
<text text-anchor="start" x="500" y="-565.3" font-family="Times,serif" font-size="14.00">encrypted_password :character varying</text>
<text text-anchor="start" x="500" y="-550.3" font-family="Times,serif" font-size="14.00">reset_password_token :character varying</text>
<text text-anchor="start" x="500" y="-535.3" font-family="Times,serif" font-size="14.00">reset_password_sent_at :timestamp without time zone</text>
<text text-anchor="start" x="500" y="-520.3" font-family="Times,serif" font-size="14.00">remember_created_at :timestamp without time zone</text>
<text text-anchor="start" x="500" y="-505.3" font-family="Times,serif" font-size="14.00">sign_in_count :integer</text>
<text text-anchor="start" x="500" y="-490.3" font-family="Times,serif" font-size="14.00">current_sign_in_at :timestamp without time zone</text>
<text text-anchor="start" x="500" y="-475.3" font-family="Times,serif" font-size="14.00">last_sign_in_at :timestamp without time zone</text>
<text text-anchor="start" x="500" y="-460.3" font-family="Times,serif" font-size="14.00">current_sign_in_ip :inet</text>
<text text-anchor="start" x="500" y="-445.3" font-family="Times,serif" font-size="14.00">last_sign_in_ip :inet</text>
<text text-anchor="start" x="500" y="-430.3" font-family="Times,serif" font-size="14.00">confirmation_token :character varying</text>
<text text-anchor="start" x="500" y="-415.3" font-family="Times,serif" font-size="14.00">confirmed_at :timestamp without time zone</text>
<text text-anchor="start" x="500" y="-400.3" font-family="Times,serif" font-size="14.00">confirmation_sent_at :timestamp without time zone</text>
<text text-anchor="start" x="500" y="-385.3" font-family="Times,serif" font-size="14.00">unconfirmed_email :character varying</text>
<text text-anchor="start" x="500" y="-370.3" font-family="Times,serif" font-size="14.00">created_at :timestamp without time zone</text>
<text text-anchor="start" x="500" y="-355.3" font-family="Times,serif" font-size="14.00">updated_at :timestamp without time zone</text>
<text text-anchor="start" x="500" y="-340.3" font-family="Times,serif" font-size="14.00">id :integer</text>
</g>
<!-- User&#45;&gt;Collaborator -->
<g id="edge2" class="edge"><title>User&#45;&gt;Collaborator</title>
<path fill="none" stroke="#b2f0d6" d="M591.567,-324.228C587.703,-309.771 584.405,-295.218 582,-281 571.845,-220.964 573.733,-204.325 582,-144 583.239,-134.962 585.15,-125.55 587.376,-116.37"/>
<ellipse fill="none" stroke="#b2f0d6" cx="592.71" cy="-328.39" rx="4.00001" ry="4.00001"/>
<polygon fill="#b2f0d6" stroke="#b2f0d6" points="587.416,-116.215 594.258,-107.646 588.657,-111.372 589.898,-106.528 589.898,-106.528 589.898,-106.528 588.657,-111.372 585.539,-105.411 587.416,-116.215 587.416,-116.215"/>
</g>
<!-- Wiki -->
<g id="node5" class="node"><title>Wiki</title>
<path fill="none" stroke="black" d="M603,-144.5C603,-144.5 827,-144.5 827,-144.5 833,-144.5 839,-150.5 839,-156.5 839,-156.5 839,-268.5 839,-268.5 839,-274.5 833,-280.5 827,-280.5 827,-280.5 603,-280.5 603,-280.5 597,-280.5 591,-274.5 591,-268.5 591,-268.5 591,-156.5 591,-156.5 591,-150.5 597,-144.5 603,-144.5"/>
<text text-anchor="middle" x="715" y="-265.3" font-family="Times,serif" font-size="14.00">Wiki</text>
<polyline fill="none" stroke="black" points="591,-257.5 839,-257.5 "/>
<text text-anchor="start" x="599" y="-242.3" font-family="Times,serif" font-size="14.00">private :boolean</text>
<text text-anchor="start" x="599" y="-227.3" font-family="Times,serif" font-size="14.00">title :character varying</text>
<text text-anchor="start" x="599" y="-212.3" font-family="Times,serif" font-size="14.00">body :text</text>
<text text-anchor="start" x="599" y="-197.3" font-family="Times,serif" font-size="14.00">id :integer</text>
<text text-anchor="start" x="599" y="-182.3" font-family="Times,serif" font-size="14.00">user_id :integer</text>
<text text-anchor="start" x="599" y="-167.3" font-family="Times,serif" font-size="14.00">created_at :timestamp without time zone</text>
<text text-anchor="start" x="599" y="-152.3" font-family="Times,serif" font-size="14.00">updated_at :timestamp without time zone</text>
</g>
<!-- User&#45;&gt;Wiki -->
<g id="edge1" class="edge"><title>User&#45;&gt;Wiki</title>
<path fill="none" stroke="#17c028" d="M642.412,-324.342C644.05,-315.675 646.212,-307.174 649,-299 650.074,-295.85 651.317,-292.725 652.7,-289.638"/>
<ellipse fill="none" stroke="#17c028" cx="641.723" cy="-328.399" rx="4.00001" ry="4.00001"/>
<polygon fill="#17c028" stroke="#17c028" points="652.79,-289.457 661.268,-282.503 655.014,-284.979 657.238,-280.501 657.238,-280.501 657.238,-280.501 655.014,-284.979 653.208,-278.499 652.79,-289.457 652.79,-289.457"/>
</g>
<!-- User&#45;&gt;Wiki -->
<g id="edge3" class="edge"><title>User&#45;&gt;Wiki</title>
<path fill="none" stroke="#64c925" d="M662.94,-322.436C664.697,-314.453 666.706,-306.601 669,-299 669.896,-296.03 670.902,-293.045 671.996,-290.062"/>
<polygon fill="#64c925" stroke="#64c925" points="662.94,-322.436 656.512,-331.321 661.93,-327.333 660.919,-332.23 660.919,-332.23 660.919,-332.23 661.93,-327.333 665.327,-333.139 662.94,-322.436 662.94,-322.436"/>
<polygon fill="#64c925" stroke="#64c925" points="672.075,-289.862 679.948,-282.228 673.921,-285.215 675.766,-280.568 675.766,-280.568 675.766,-280.568 673.921,-285.215 671.583,-278.907 672.075,-289.862 672.075,-289.862"/>
<text text-anchor="middle" x="721.5" y="-302.8" font-family="Times,serif" font-size="14.00">collaborator_wikis</text>
</g>
<!-- Wiki&#45;&gt;Collaborator -->
<g id="edge4" class="edge"><title>Wiki&#45;&gt;Collaborator</title>
<path fill="none" stroke="#179af6" d="M664.166,-137.602C658.986,-130.072 653.767,-122.486 648.701,-115.122"/>
<ellipse fill="none" stroke="#179af6" cx="666.618" cy="-141.167" rx="4.00002" ry="4.00002"/>
<polygon fill="#179af6" stroke="#179af6" points="648.503,-114.834 646.543,-104.044 645.67,-110.714 642.836,-106.595 642.836,-106.595 642.836,-106.595 645.67,-110.714 639.128,-109.145 648.503,-114.834 648.503,-114.834"/>
</g>
<!-- Wiki&#45;&gt;User -->
<g id="edge5" class="edge"><title>Wiki&#45;&gt;User</title>
<path fill="none" stroke="#878d31" d="M775.353,-290.322C776.792,-298.119 776.571,-306.085 774,-314 773.029,-316.989 771.983,-319.969 770.868,-322.938"/>
<polygon fill="#878d31" stroke="#878d31" points="775.321,-290.203 777.036,-279.372 774.007,-285.379 772.694,-280.554 772.694,-280.554 772.694,-280.554 774.007,-285.379 768.352,-281.736 775.321,-290.203 775.321,-290.203"/>
<polygon fill="#878d31" stroke="#878d31" points="770.804,-323.096 762.902,-330.699 768.941,-327.736 767.078,-332.376 767.078,-332.376 767.078,-332.376 768.941,-327.736 771.254,-334.053 770.804,-323.096 770.804,-323.096"/>
</g>
</g>
</svg>
