<?xml version="1.0" encoding="UTF-8" standalone="no"?>
<!DOCTYPE svg PUBLIC "-//W3C//DTD SVG 1.1//EN"
 "http://www.w3.org/Graphics/SVG/1.1/DTD/svg11.dtd">
<!-- Generated by graphviz version 2.38.0 (20140413.2041)
 -->
<!-- Title: models_diagram Pages: 1 -->
<svg width="389pt" height="230pt"
 viewBox="0.00 0.00 388.60 230.00" xmlns="http://www.w3.org/2000/svg" xmlns:xlink="http://www.w3.org/1999/xlink">
<g id="graph0" class="graph" transform="scale(1 1) rotate(0) translate(4 226)">
<title>models_diagram</title>
<polygon fill="none" stroke="none" points="-4,4 -4,-226 384.597,-226 384.597,4 -4,4"/>
<!-- _diagram_info -->
<g id="node1" class="node"><title>_diagram_info</title>
<text text-anchor="start" x="8" y="-207.6" font-family="Times,serif" font-size="13.00">Models diagram</text>
<text text-anchor="start" x="8" y="-193.6" font-family="Times,serif" font-size="13.00">Date: Sep 12 2016 &#45; 10:13</text>
<text text-anchor="start" x="8" y="-179.6" font-family="Times,serif" font-size="13.00">Migration version: 20160909203223</text>
<text text-anchor="start" x="8" y="-165.6" font-family="Times,serif" font-size="13.00">Generated by RailRoady 1.5.1</text>
<text text-anchor="start" x="8" y="-151.6" font-family="Times,serif" font-size="13.00">http://railroady.prestonlee.com</text>
</g>
<!-- Amount -->
<g id="node2" class="node"><title>Amount</title>
<ellipse fill="none" stroke="black" cx="266" cy="-183" rx="40.0939" ry="18"/>
<text text-anchor="middle" x="266" y="-179.3" font-family="Times,serif" font-size="14.00">Amount</text>
</g>
<!-- Collaborator -->
<g id="node3" class="node"><title>Collaborator</title>
<ellipse fill="none" stroke="black" cx="323" cy="-18" rx="56.59" ry="18"/>
<text text-anchor="middle" x="323" y="-14.3" font-family="Times,serif" font-size="14.00">Collaborator</text>
</g>
<!-- User -->
<g id="node4" class="node"><title>User</title>
<ellipse fill="none" stroke="black" cx="352" cy="-183" rx="27.8951" ry="18"/>
<text text-anchor="middle" x="352" y="-179.3" font-family="Times,serif" font-size="14.00">User</text>
</g>
<!-- User&#45;&gt;Collaborator -->
<g id="edge2" class="edge"><title>User&#45;&gt;Collaborator</title>
<path fill="none" stroke="#eb566a" d="M336.708,-159.223C328.185,-145.13 318.422,-126.29 314,-108 309.028,-87.4314 311.898,-63.5449 315.671,-45.6995"/>
<ellipse fill="none" stroke="#eb566a" cx="338.9" cy="-162.738" rx="4.00002" ry="4.00002"/>
<polygon fill="#eb566a" stroke="#eb566a" points="315.671,-45.6993 322.327,-36.9842 316.808,-40.8302 317.945,-35.9612 317.945,-35.9612 317.945,-35.9612 316.808,-40.8302 313.562,-34.9381 315.671,-45.6993 315.671,-45.6993"/>
</g>
<!-- Wiki -->
<g id="node5" class="node"><title>Wiki</title>
<ellipse fill="none" stroke="black" cx="352" cy="-90" rx="28.6953" ry="18"/>
<text text-anchor="middle" x="352" y="-86.3" font-family="Times,serif" font-size="14.00">Wiki</text>
</g>
<!-- User&#45;&gt;Wiki -->
<g id="edge1" class="edge"><title>User&#45;&gt;Wiki</title>
<path fill="none" stroke="#8b1680" d="M345.908,-157.11C345.08,-145.015 345.034,-130.458 345.767,-118.086"/>
<ellipse fill="none" stroke="#8b1680" cx="346.282" cy="-161.325" rx="4" ry="4"/>
<polygon fill="#8b1680" stroke="#8b1680" points="345.786,-117.859 351.098,-108.265 346.2,-112.876 346.613,-107.893 346.613,-107.893 346.613,-107.893 346.2,-112.876 342.129,-107.521 345.786,-117.859 345.786,-117.859"/>
</g>
<!-- Wiki&#45;&gt;Collaborator -->
<g id="edge3" class="edge"><title>Wiki&#45;&gt;Collaborator</title>
<path fill="none" stroke="#3792a5" d="M341.965,-64.7779C339.383,-58.544 336.59,-51.8046 333.963,-45.4634"/>
<ellipse fill="none" stroke="#3792a5" cx="343.596" cy="-68.7155" rx="4.00001" ry="4.00001"/>
<polygon fill="#3792a5" stroke="#3792a5" points="333.852,-45.1948 334.182,-34.2339 331.938,-40.5755 330.025,-35.9562 330.025,-35.9562 330.025,-35.9562 331.938,-40.5755 325.867,-37.6786 333.852,-45.1948 333.852,-45.1948"/>
</g>
<!-- Wiki&#45;&gt;User -->
<g id="edge4" class="edge"><title>Wiki&#45;&gt;User</title>
<path fill="none" stroke="#816108" d="M358.224,-117.941C358.922,-129.604 358.925,-143.232 358.233,-154.912"/>
<polygon fill="#816108" stroke="#816108" points="358.217,-117.859 361.871,-107.519 357.802,-112.876 357.387,-107.893 357.387,-107.893 357.387,-107.893 357.802,-112.876 352.902,-108.267 358.217,-117.859 358.217,-117.859"/>
<polygon fill="#816108" stroke="#816108" points="358.197,-155.344 352.88,-164.935 357.78,-160.327 357.364,-165.309 357.364,-165.309 357.364,-165.309 357.78,-160.327 361.848,-165.684 358.197,-155.344 358.197,-155.344"/>
</g>
</g>
</svg>
