<?xml version="1.0" encoding="UTF-8" standalone="no"?>
<!DOCTYPE svg PUBLIC "-//W3C//DTD SVG 1.1//EN"
 "http://www.w3.org/Graphics/SVG/1.1/DTD/svg11.dtd">
<!-- Generated by graphviz version 2.38.0 (20140413.2041)
 -->
<!-- Title: models_diagram Pages: 1 -->
<svg width="820pt" height="626pt"
 viewBox="0.00 0.00 820.00 626.00" xmlns="http://www.w3.org/2000/svg" xmlns:xlink="http://www.w3.org/1999/xlink">
<g id="graph0" class="graph" transform="scale(1 1) rotate(0) translate(4 622)">
<title>models_diagram</title>
<polygon fill="none" stroke="none" points="-4,4 -4,-622 816,-622 816,4 -4,4"/>
<!-- _diagram_info -->
<g id="node1" class="node"><title>_diagram_info</title>
<text text-anchor="start" x="8" y="-491.6" font-family="Times,serif" font-size="13.00">Models diagram</text>
<text text-anchor="start" x="8" y="-477.6" font-family="Times,serif" font-size="13.00">Date: Sep 12 2016 &#45; 10:13</text>
<text text-anchor="start" x="8" y="-463.6" font-family="Times,serif" font-size="13.00">Migration version: 20160909203223</text>
<text text-anchor="start" x="8" y="-449.6" font-family="Times,serif" font-size="13.00">Generated by RailRoady 1.5.1</text>
<text text-anchor="start" x="8" y="-435.6" font-family="Times,serif" font-size="13.00">http://railroady.prestonlee.com</text>
</g>
<!-- Amount -->
<g id="node2" class="node"><title>Amount</title>
<path fill="none" stroke="black" d="M238,-421.5C238,-421.5 462,-421.5 462,-421.5 468,-421.5 474,-427.5 474,-433.5 474,-433.5 474,-500.5 474,-500.5 474,-506.5 468,-512.5 462,-512.5 462,-512.5 238,-512.5 238,-512.5 232,-512.5 226,-506.5 226,-500.5 226,-500.5 226,-433.5 226,-433.5 226,-427.5 232,-421.5 238,-421.5"/>
<text text-anchor="middle" x="350" y="-497.3" font-family="Times,serif" font-size="14.00">Amount</text>
<polyline fill="none" stroke="black" points="226,-489.5 474,-489.5 "/>
<text text-anchor="start" x="234" y="-474.3" font-family="Times,serif" font-size="14.00">id :integer</text>
<text text-anchor="start" x="234" y="-459.3" font-family="Times,serif" font-size="14.00">price :integer</text>
<text text-anchor="start" x="234" y="-444.3" font-family="Times,serif" font-size="14.00">created_at :timestamp without time zone</text>
<text text-anchor="start" x="234" y="-429.3" font-family="Times,serif" font-size="14.00">updated_at :timestamp without time zone</text>
</g>
<!-- Collaborator -->
<g id="node3" class="node"><title>Collaborator</title>
<path fill="none" stroke="black" d="M464,-0.5C464,-0.5 688,-0.5 688,-0.5 694,-0.5 700,-6.5 700,-12.5 700,-12.5 700,-94.5 700,-94.5 700,-100.5 694,-106.5 688,-106.5 688,-106.5 464,-106.5 464,-106.5 458,-106.5 452,-100.5 452,-94.5 452,-94.5 452,-12.5 452,-12.5 452,-6.5 458,-0.5 464,-0.5"/>
<text text-anchor="middle" x="576" y="-91.3" font-family="Times,serif" font-size="14.00">Collaborator</text>
<polyline fill="none" stroke="black" points="452,-83.5 700,-83.5 "/>
<text text-anchor="start" x="460" y="-68.3" font-family="Times,serif" font-size="14.00">id :integer</text>
<text text-anchor="start" x="460" y="-53.3" font-family="Times,serif" font-size="14.00">user_id :integer</text>
<text text-anchor="start" x="460" y="-38.3" font-family="Times,serif" font-size="14.00">wiki_id :integer</text>
<text text-anchor="start" x="460" y="-23.3" font-family="Times,serif" font-size="14.00">created_at :timestamp without time zone</text>
<text text-anchor="start" x="460" y="-8.3" font-family="Times,serif" font-size="14.00">updated_at :timestamp without time zone</text>
</g>
<!-- User -->
<g id="node4" class="node"><title>User</title>
<path fill="none" stroke="black" d="M504,-316.5C504,-316.5 800,-316.5 800,-316.5 806,-316.5 812,-322.5 812,-328.5 812,-328.5 812,-605.5 812,-605.5 812,-611.5 806,-617.5 800,-617.5 800,-617.5 504,-617.5 504,-617.5 498,-617.5 492,-611.5 492,-605.5 492,-605.5 492,-328.5 492,-328.5 492,-322.5 498,-316.5 504,-316.5"/>
<text text-anchor="middle" x="652" y="-602.3" font-family="Times,serif" font-size="14.00">User</text>
<polyline fill="none" stroke="black" points="492,-594.5 812,-594.5 "/>
<text text-anchor="start" x="500" y="-579.3" font-family="Times,serif" font-size="14.00">role :integer</text>
<text text-anchor="start" x="500" y="-564.3" font-family="Times,serif" font-size="14.00">email :character varying</text>
<text text-anchor="start" x="500" y="-549.3" font-family="Times,serif" font-size="14.00">encrypted_password :character varying</text>
<text text-anchor="start" x="500" y="-534.3" font-family="Times,serif" font-size="14.00">reset_password_token :character varying</text>
<text text-anchor="start" x="500" y="-519.3" font-family="Times,serif" font-size="14.00">reset_password_sent_at :timestamp without time zone</text>
<text text-anchor="start" x="500" y="-504.3" font-family="Times,serif" font-size="14.00">remember_created_at :timestamp without time zone</text>
<text text-anchor="start" x="500" y="-489.3" font-family="Times,serif" font-size="14.00">sign_in_count :integer</text>
<text text-anchor="start" x="500" y="-474.3" font-family="Times,serif" font-size="14.00">current_sign_in_at :timestamp without time zone</text>
<text text-anchor="start" x="500" y="-459.3" font-family="Times,serif" font-size="14.00">last_sign_in_at :timestamp without time zone</text>
<text text-anchor="start" x="500" y="-444.3" font-family="Times,serif" font-size="14.00">current_sign_in_ip :inet</text>
<text text-anchor="start" x="500" y="-429.3" font-family="Times,serif" font-size="14.00">last_sign_in_ip :inet</text>
<text text-anchor="start" x="500" y="-414.3" font-family="Times,serif" font-size="14.00">confirmation_token :character varying</text>
<text text-anchor="start" x="500" y="-399.3" font-family="Times,serif" font-size="14.00">confirmed_at :timestamp without time zone</text>
<text text-anchor="start" x="500" y="-384.3" font-family="Times,serif" font-size="14.00">confirmation_sent_at :timestamp without time zone</text>
<text text-anchor="start" x="500" y="-369.3" font-family="Times,serif" font-size="14.00">unconfirmed_email :character varying</text>
<text text-anchor="start" x="500" y="-354.3" font-family="Times,serif" font-size="14.00">created_at :timestamp without time zone</text>
<text text-anchor="start" x="500" y="-339.3" font-family="Times,serif" font-size="14.00">updated_at :timestamp without time zone</text>
<text text-anchor="start" x="500" y="-324.3" font-family="Times,serif" font-size="14.00">id :integer</text>
</g>
<!-- User&#45;&gt;Collaborator -->
<g id="edge2" class="edge"><title>User&#45;&gt;Collaborator</title>
<path fill="none" stroke="#c94c3b" d="M530.419,-309.053C526.006,-299.503 522.14,-289.79 519,-280 500.403,-222.021 501.817,-201.414 519,-143 521.718,-133.761 525.732,-124.576 530.393,-115.814"/>
<ellipse fill="none" stroke="#c94c3b" cx="532.171" cy="-312.716" rx="4.00002" ry="4.00002"/>
<polygon fill="#c94c3b" stroke="#c94c3b" points="530.538,-115.557 539.376,-109.065 532.998,-111.204 535.458,-106.851 535.458,-106.851 535.458,-106.851 532.998,-111.204 531.541,-104.637 530.538,-115.557 530.538,-115.557"/>
</g>
<!-- Wiki -->
<g id="node5" class="node"><title>Wiki</title>
<path fill="none" stroke="black" d="M540,-143.5C540,-143.5 764,-143.5 764,-143.5 770,-143.5 776,-149.5 776,-155.5 776,-155.5 776,-267.5 776,-267.5 776,-273.5 770,-279.5 764,-279.5 764,-279.5 540,-279.5 540,-279.5 534,-279.5 528,-273.5 528,-267.5 528,-267.5 528,-155.5 528,-155.5 528,-149.5 534,-143.5 540,-143.5"/>
<text text-anchor="middle" x="652" y="-264.3" font-family="Times,serif" font-size="14.00">Wiki</text>
<polyline fill="none" stroke="black" points="528,-256.5 776,-256.5 "/>
<text text-anchor="start" x="536" y="-241.3" font-family="Times,serif" font-size="14.00">private :boolean</text>
<text text-anchor="start" x="536" y="-226.3" font-family="Times,serif" font-size="14.00">title :character varying</text>
<text text-anchor="start" x="536" y="-211.3" font-family="Times,serif" font-size="14.00">body :text</text>
<text text-anchor="start" x="536" y="-196.3" font-family="Times,serif" font-size="14.00">id :integer</text>
<text text-anchor="start" x="536" y="-181.3" font-family="Times,serif" font-size="14.00">user_id :integer</text>
<text text-anchor="start" x="536" y="-166.3" font-family="Times,serif" font-size="14.00">created_at :timestamp without time zone</text>
<text text-anchor="start" x="536" y="-151.3" font-family="Times,serif" font-size="14.00">updated_at :timestamp without time zone</text>
</g>
<!-- User&#45;&gt;Wiki -->
<g id="edge1" class="edge"><title>User&#45;&gt;Wiki</title>
<path fill="none" stroke="#469546" d="M645.432,-308.315C645.508,-301.947 645.609,-295.691 645.733,-289.615"/>
<ellipse fill="none" stroke="#469546" cx="645.39" cy="-312.34" rx="4" ry="4"/>
<polygon fill="#469546" stroke="#469546" points="645.734,-289.569 650.463,-279.676 645.849,-284.571 645.965,-279.572 645.965,-279.572 645.965,-279.572 645.849,-284.571 641.466,-279.468 645.734,-289.569 645.734,-289.569"/>
</g>
<!-- Wiki&#45;&gt;Collaborator -->
<g id="edge3" class="edge"><title>Wiki&#45;&gt;Collaborator</title>
<path fill="none" stroke="#fb38dd" d="M615.823,-136.243C612.579,-129.583 609.317,-122.887 606.132,-116.349"/>
<ellipse fill="none" stroke="#fb38dd" cx="617.576" cy="-139.841" rx="4.00002" ry="4.00002"/>
<polygon fill="#fb38dd" stroke="#fb38dd" points="605.911,-115.897 605.577,-104.936 603.721,-111.402 601.532,-106.907 601.532,-106.907 601.532,-106.907 603.721,-111.402 597.486,-108.878 605.911,-115.897 605.911,-115.897"/>
</g>
<!-- Wiki&#45;&gt;User -->
<g id="edge4" class="edge"><title>Wiki&#45;&gt;User</title>
<path fill="none" stroke="#92a8ee" d="M658.27,-289.733C658.379,-295.115 658.47,-300.637 658.542,-306.252"/>
<polygon fill="#92a8ee" stroke="#92a8ee" points="658.266,-289.569 662.534,-279.468 658.151,-284.571 658.035,-279.572 658.035,-279.572 658.035,-279.572 658.151,-284.571 653.537,-279.676 658.266,-289.569 658.266,-289.569"/>
<polygon fill="#92a8ee" stroke="#92a8ee" points="658.543,-306.34 654.151,-316.388 658.597,-311.34 658.651,-316.34 658.651,-316.34 658.651,-316.34 658.597,-311.34 663.151,-316.291 658.543,-306.34 658.543,-306.34"/>
</g>
</g>
</svg>
